<svg enable-background="new 0 0 240 46" viewBox="0 0 240 46" xmlns="http://www.w3.org/2000/svg">
	<g fill="rgb(190, 253, 255)">
		<path d="m0 0h39.5v9.9h-13.7v35.5h-12.1v-35.5h-13.7z"/>
		<path d="m44.1 0h19.6c10.1 0 16.8 5.8 16.8 15.4 0 6.3-2.9 10.7-7.7 13l9.2 16.9h-13.3l-8-15h-4.3v15h-12.3zm16.7 20.8c4.3 0 6.9-1.5 6.9-5.4s-2.6-5.6-6.9-5.6h-4.3v11z"/>
		<path d="m85.8 0h12.3v18.4h.6l13.7-18.4h14.4l-15.3 20.2 15.7 25.2h-14.7l-10.2-17-4.1 5.3v11.7h-12.4z"/>
		<path d="m130.5 0h19.6c10.1 0 16.8 6.4 16.8 16.1 0 9.8-6.9 15.9-17.3 15.9h-6.8v13.5h-12.3zm16.7 22.3c4.3 0 6.9-2.4 6.9-6.3s-2.6-6.2-6.9-6.2h-4.3v12.5z"/>
		<path d="m171.5 0h12.3v35.5h18.4v9.9h-30.7z"/>
		<path d="m200.5 0h39.5v9.9h-13.7v35.5h-12.2v-35.5h-13.7v-9.9z"/>
	</g>
</svg>